<svg xmlns="http://www.w3.org/2000/svg" viewBox="0 0 256 256" fill="#000000" id="Palette--Streamline-Phosphor">
  <desc>
    Palette Streamline Icon: https://streamlinehq.com
  </desc>
  <path d="M215.7681 43.4435c-23.3544 -23.1265 -54.9029 -36.085 -87.7703 -36.0513h-1.2905C57.9344 8.0998 2.5564 64.0535 2.56 132.83c0 51.8638 32.059 95.3569 83.6574 113.5816 25.1048 8.8509 51.4217 -9.7697 51.4295 -36.3891 0 -10.6583 8.6397 -19.2985 19.2981 -19.2981h55.7354c18.0385 0.0873 33.7017 -12.4031 37.6313 -30.0086 2.1568 -9.4958 3.2051 -19.2098 3.1239 -28.9471 -0.2481 -33.2924 -13.813 -65.1001 -37.6675 -88.3252Zm15.6797 113.0268c-1.9743 8.7696 -9.7783 14.9888 -18.7674 14.956H156.945c-21.3161 0 -38.5962 17.2801 -38.5962 38.5963 -0.0193 13.2948 -13.1614 22.5886 -25.7027 18.1764 -43.662 -15.4023 -70.788 -51.9482 -70.788 -95.369C21.855 74.6367 68.71 27.2921 126.9002 26.6904h1.0856c58.1737 0.2259 105.4158 47.0654 106.1396 105.235 0.0719 8.2556 -0.8104 16.4918 -2.6293 24.5448Zm-88.9764 -86.3592c0 11.1418 -12.0613 18.1054 -21.7104 12.5345 -9.649 -5.5709 -9.649 -19.4981 0 -25.069 2.2003 -1.2703 4.6962 -1.9391 7.2368 -1.9391 7.9936 0 14.4736 6.4801 14.4736 14.4736ZM89.4016 99.0583c0 11.1418 -12.0614 18.1054 -21.7104 12.5345 -9.6491 -5.5709 -9.6491 -19.4981 0 -25.069 2.2002 -1.2703 4.6961 -1.9391 7.2368 -1.9391 7.9935 0 14.4736 6.4801 14.4736 14.4736Zm0 67.5435c0 11.1417 -12.0614 18.1054 -21.7104 12.5345 -9.6491 -5.5709 -9.6491 -19.4981 0 -25.069 2.2002 -1.2704 4.6961 -1.9391 7.2368 -1.9391 7.9935 0 14.4736 6.48 14.4736 14.4736Zm106.1397 -67.5435c0 11.1418 -12.0614 18.1054 -21.7104 12.5345 -9.6491 -5.5709 -9.6491 -19.4981 0 -25.069 2.2002 -1.2703 4.6961 -1.9391 7.2368 -1.9391 7.9935 0 14.4736 6.4801 14.4736 14.4736Z" stroke-width="1"></path>
</svg>